# xmcd CD database file
#
# Track frame offsets:
#	150
#	23655
#	46960
#	103951
#	148462
#	164453
#	209301
#	225578
#
# Disc length: 3285 seconds
#
# Revision: 0
# Processed by: cddbd v1.5.2PL0 Copyright (c) Steve Scherf et al.
# Submitted via: CDex 1.51
#
DISCID=6f0cd308
DTITLE=Element - Element
DYEAR=1996
DGENRE=Jazz
TTITLE0=Statement
TTITLE1=Over the Hill
TTITLE2=First Light
TTITLE3=Tribute
TTITLE4=ElfDance
TTITLE5=Forest Waltz
TTITLE6=Sunset
TTITLE7=Duo
EXTD=YEAR: 1996
EXTT0=
EXTT1=
EXTT2=
EXTT3=
EXTT4=
EXTT5=
EXTT6=
EXTT7=
PLAYORDER=
